<?xml version="1.0" encoding="utf-8"?>
<!-- Generator: Adobe Illustrator 16.0.0, SVG Export Plug-In . SVG Version: 6.00 Build 0)  -->
<!DOCTYPE svg PUBLIC "-//W3C//DTD SVG 1.1//EN" "http://www.w3.org/Graphics/SVG/1.1/DTD/svg11.dtd">
<svg version="1.1" id="Layer_1" xmlns="http://www.w3.org/2000/svg" xmlns:xlink="http://www.w3.org/1999/xlink" x="0px" y="0px"
	 width="459.616px" height="73.906px" viewBox="0 0 459.616 73.906" enable-background="new 0 0 459.616 73.906"
	 xml:space="preserve">
<g>
	<rect y="2.499" fill="none" width="459.616" height="67.981"/>
	<path d="M4.023,57.5c2.317-21.822,7.63-40.156,15.938-55h5.078c8.307,14.844,13.619,33.178,15.938,55h-5.273
		c-0.391-4.713-1.107-9.766-2.148-15.156H11.445c-0.131,0.808-0.326,1.999-0.586,3.574c-0.261,1.576-0.469,2.871-0.625,3.887
		s-0.326,2.24-0.508,3.672C9.544,54.909,9.4,56.25,9.297,57.5H4.023z M32.734,37.656c-1.511-6.38-3.034-11.979-4.57-16.797
		c-1.537-4.817-3.359-9.258-5.469-13.32h-0.391c-2.109,4.063-3.933,8.503-5.469,13.32c-1.537,4.818-3.061,10.417-4.57,16.797H32.734
		z"/>
	<path d="M75,57.539c-2.787,0.391-5.287,0.586-7.5,0.586c-2.084,0-3.979-0.378-5.684-1.133c-1.706-0.755-3.093-1.783-4.16-3.086
		c-0.834-0.989-1.459-2.148-1.875-3.477c-0.417-1.328-0.651-2.435-0.703-3.32C55.025,46.224,55,45,55,43.437V22.421H45V17.5h10v-10
		h5v10h15v4.922H60v20.625c0,1.433,0.02,2.5,0.059,3.203s0.188,1.511,0.449,2.422c0.26,0.912,0.65,1.693,1.172,2.344
		c1.354,1.615,3.424,2.422,6.211,2.422c1.849,0,4.219-0.195,7.109-0.586V57.539z"/>
	<path d="M95.995,18.535c1.914-1.106,4.082-1.66,6.504-1.66s4.59,0.554,6.504,1.66c1.914,1.107,3.482,2.637,4.707,4.59
		c1.016,1.667,1.692,3.64,2.031,5.918c0.338,2.279,0.508,5.098,0.508,8.457s-0.17,6.179-0.508,8.457
		c-0.339,2.279-1.016,4.252-2.031,5.918c-1.225,1.953-2.793,3.483-4.707,4.59s-4.082,1.66-6.504,1.66s-4.59-0.554-6.504-1.66
		s-3.483-2.637-4.707-4.59c-1.016-1.666-1.693-3.639-2.031-5.918c-0.339-2.278-0.508-5.098-0.508-8.457s0.169-6.178,0.508-8.457
		c0.338-2.278,1.016-4.251,2.031-5.918C92.512,21.171,94.081,19.642,95.995,18.535z M102.499,21.562
		c-3.073,0-5.365,1.276-6.875,3.828c-0.573,0.964-1.003,2.168-1.289,3.613c-0.287,1.445-0.456,2.741-0.508,3.887
		c-0.053,1.146-0.078,2.683-0.078,4.609c0,1.928,0.025,3.464,0.078,4.609c0.052,1.146,0.221,2.441,0.508,3.887
		c0.286,1.445,0.716,2.65,1.289,3.613c1.51,2.553,3.802,3.828,6.875,3.828c3.072,0,5.364-1.275,6.875-3.828
		c0.572-0.963,1.002-2.168,1.289-3.613c0.286-1.445,0.455-2.74,0.508-3.887c0.052-1.146,0.078-2.682,0.078-4.609
		c0-1.927-0.026-3.463-0.078-4.609c-0.053-1.146-0.222-2.441-0.508-3.887c-0.287-1.445-0.717-2.649-1.289-3.613
		C107.863,22.838,105.571,21.562,102.499,21.562z"/>
	<path d="M136.17,16.875c1.563,0,2.962,0.397,4.199,1.191c1.236,0.795,2.22,1.843,2.949,3.145c2.213-2.891,4.83-4.336,7.852-4.336
		c2.864,0,5.13,1.12,6.797,3.359c0.625,0.859,1.094,1.811,1.406,2.852c0.313,1.042,0.494,1.934,0.547,2.676
		c0.052,0.742,0.078,1.816,0.078,3.223V57.5h-5V28.984c0-1.119-0.014-1.939-0.039-2.461c-0.026-0.521-0.131-1.106-0.313-1.758
		c-0.183-0.65-0.456-1.185-0.82-1.602c-0.938-1.067-2.214-1.602-3.828-1.602c-1.615,0-2.891,0.534-3.828,1.602
		c-0.365,0.417-0.639,0.951-0.82,1.602c-0.183,0.651-0.287,1.237-0.313,1.758c-0.026,0.521-0.039,1.342-0.039,2.461V57.5h-5V28.984
		c0-1.119-0.014-1.939-0.039-2.461c-0.026-0.521-0.131-1.106-0.313-1.758c-0.183-0.65-0.456-1.185-0.82-1.602
		c-0.938-1.067-2.214-1.602-3.828-1.602c-1.615,0-2.891,0.534-3.828,1.602c-0.365,0.417-0.639,0.951-0.82,1.602
		c-0.183,0.651-0.287,1.237-0.313,1.758c-0.026,0.521-0.039,1.342-0.039,2.461V57.5h-5v-40h5v2.93h0.391
		C132.003,18.06,133.93,16.875,136.17,16.875z"/>
	<path d="M179.998,57.5V22.187h-10V17.5h15v40H179.998z M178.083,3.085c0.807-0.807,1.861-1.211,3.164-1.211
		c1.302,0,2.356,0.404,3.164,1.211c0.807,0.808,1.211,1.862,1.211,3.164c0,1.303-0.404,2.357-1.211,3.164
		c-0.808,0.808-1.862,1.211-3.164,1.211c-1.303,0-2.357-0.403-3.164-1.211c-0.808-0.807-1.211-1.861-1.211-3.164
		C176.873,4.948,177.276,3.893,178.083,3.085z"/>
	<path d="M209.04,44.687c-0.195-1.875-0.293-4.271-0.293-7.188c0-2.916,0.098-5.313,0.293-7.188s0.657-3.633,1.387-5.273
		c2.369-5.442,6.783-8.164,13.242-8.164c2.604,0,6.119,0.222,10.547,0.664v4.688c-4.479-0.442-7.995-0.664-10.547-0.664
		c-2.24,0-4.018,0.424-5.332,1.27c-1.315,0.847-2.39,2.129-3.223,3.848c-0.417,0.886-0.736,1.992-0.957,3.32
		c-0.222,1.328-0.346,2.468-0.371,3.418c-0.026,0.951-0.039,2.312-0.039,4.082c0,1.771,0.013,3.132,0.039,4.082
		c0.025,0.951,0.149,2.09,0.371,3.418c0.221,1.328,0.54,2.436,0.957,3.32c0.833,1.719,1.907,3.002,3.223,3.848
		c1.314,0.847,3.092,1.27,5.332,1.27c3.047,0,6.822-0.338,11.328-1.016v4.688c-4.479,0.677-8.256,1.016-11.328,1.016
		c-6.459,0-10.873-2.721-13.242-8.164C209.697,48.32,209.235,46.562,209.04,44.687z"/>
	<path d="M309.135,29.14c2.969,0.808,5.364,2.416,7.188,4.824c1.822,2.409,2.734,5.254,2.734,8.535c0,3.646-0.957,6.765-2.871,9.355
		c-1.914,2.592-4.395,4.265-7.441,5.02c-1.667,0.417-4.44,0.625-8.32,0.625h-15.43v-55h12.539c3.359,0,5.755,0.17,7.188,0.508
		c3.203,0.756,5.82,2.409,7.852,4.961c2.031,2.553,3.047,5.678,3.047,9.375c0,2.604-0.58,4.89-1.738,6.855
		c-1.159,1.967-2.741,3.483-4.746,4.551V29.14z M297.534,27.5c2.916,0,4.896-0.13,5.938-0.391c2.161-0.521,3.893-1.646,5.195-3.379
		c1.302-1.731,1.953-3.86,1.953-6.387c0-2.552-0.658-4.7-1.973-6.445c-1.315-1.744-3.041-2.852-5.176-3.32
		c-1.172-0.26-3.151-0.391-5.938-0.391h-7.539V27.5H297.534z M289.995,32.187v20.625h10.43c3.541,0,5.898-0.156,7.07-0.469
		c1.953-0.521,3.535-1.666,4.746-3.438c1.211-1.771,1.816-3.906,1.816-6.406c0-2.525-0.6-4.681-1.797-6.465
		c-1.198-1.783-2.787-2.91-4.766-3.379c-1.276-0.313-3.633-0.469-7.07-0.469H289.995z"/>
	<path d="M354.994,57.929c-2.475,0.13-4.271,0.195-5.391,0.195c-2.787,0-5.039-0.885-6.758-2.656
		c-0.886-0.911-1.55-1.973-1.992-3.184c-0.443-1.211-0.697-2.174-0.762-2.891c-0.065-0.716-0.098-1.646-0.098-2.793V2.5h5v44.102
		c0,0.808,0.013,1.433,0.039,1.875c0.025,0.443,0.123,0.977,0.293,1.602c0.169,0.625,0.423,1.172,0.762,1.641
		c0.859,1.146,2.161,1.719,3.906,1.719c1.771,0,3.438-0.064,5-0.195V57.929z"/>
	<path d="M375.989,18.535c1.914-1.106,4.082-1.66,6.504-1.66s4.59,0.554,6.504,1.66c1.914,1.107,3.482,2.637,4.707,4.59
		c1.016,1.667,1.692,3.64,2.031,5.918c0.338,2.279,0.508,5.098,0.508,8.457s-0.17,6.179-0.508,8.457
		c-0.339,2.279-1.016,4.252-2.031,5.918c-1.225,1.953-2.793,3.483-4.707,4.59s-4.082,1.66-6.504,1.66s-4.59-0.554-6.504-1.66
		s-3.483-2.637-4.707-4.59c-1.016-1.666-1.693-3.639-2.031-5.918c-0.339-2.278-0.508-5.098-0.508-8.457s0.169-6.178,0.508-8.457
		c0.338-2.278,1.016-4.251,2.031-5.918C372.505,21.171,374.075,19.642,375.989,18.535z M382.493,21.562
		c-3.073,0-5.365,1.276-6.875,3.828c-0.573,0.964-1.003,2.168-1.289,3.613c-0.287,1.445-0.456,2.741-0.508,3.887
		c-0.053,1.146-0.078,2.683-0.078,4.609c0,1.928,0.025,3.464,0.078,4.609c0.052,1.146,0.221,2.441,0.508,3.887
		c0.286,1.445,0.716,2.65,1.289,3.613c1.51,2.553,3.802,3.828,6.875,3.828c3.072,0,5.364-1.275,6.875-3.828
		c0.572-0.963,1.002-2.168,1.289-3.613c0.286-1.445,0.455-2.74,0.508-3.887c0.052-1.146,0.078-2.682,0.078-4.609
		c0-1.927-0.026-3.463-0.078-4.609c-0.053-1.146-0.222-2.441-0.508-3.887c-0.287-1.445-0.717-2.649-1.289-3.613
		C387.857,22.838,385.565,21.562,382.493,21.562z"/>
	<path d="M429.992,47.617h-0.391c-2.37,3.672-5.209,5.508-8.516,5.508c-3.073,0-5.69-1.055-7.852-3.164
		c-2.995-2.969-4.492-7.955-4.492-14.961c0-7.005,1.497-11.992,4.492-14.961c2.161-2.109,4.778-3.164,7.852-3.164
		c3.307,0,6.146,1.836,8.516,5.508h0.391V17.5h5v33.75c0,4.453-0.795,8.008-2.383,10.664c-2.475,4.141-6.367,6.211-11.68,6.211
		c-3.021,0-6.094-0.195-9.219-0.586v-4.688c3.516,0.391,6.588,0.586,9.219,0.586c3.307,0,5.755-1.276,7.344-3.828
		c1.146-1.85,1.719-4.635,1.719-8.359V47.617z M413.742,35c0,5.703,1.106,9.584,3.32,11.641c1.275,1.198,2.877,1.797,4.805,1.797
		c1.927,0,3.528-0.599,4.805-1.797c2.213-2.057,3.32-5.938,3.32-11.641s-1.107-9.583-3.32-11.641
		c-1.276-1.197-2.878-1.797-4.805-1.797c-1.928,0-3.529,0.6-4.805,1.797C414.848,25.417,413.742,29.296,413.742,35z"/>
</g>
<g>
</g>
<g>
</g>
<g>
</g>
<g>
</g>
<g>
</g>
<g>
</g>
<g>
</g>
<g>
</g>
<g>
</g>
<g>
</g>
<g>
</g>
<g>
</g>
<g>
</g>
<g>
</g>
<g>
</g>
</svg>
